<svg width="250" height="89" viewBox="0 0 250 89" fill="none" xmlns="http://www.w3.org/2000/svg">
<g clip-path="url(#clip0_251_398)">
<path fill-rule="evenodd" clip-rule="evenodd" d="M125 0C172.803 0 216.502 13.4384 250 35.6559C216.682 24.6534 177.724 17.8361 125 17.8361C72.2764 17.8361 33.3181 24.6534 0 35.6559C33.4979 13.4384 77.1972 0 125 0ZM13.8962 67.0939C13.8962 78.7667 32.893 82.5595 49.503 78.9955C51.8572 78.4887 53.4266 79.2244 53.9334 81.1372C54.5056 83.2952 52.74 84.6848 50.7945 85.3387C30.2773 92.3522 2.28878 86.5976 2.28878 67.6988C2.28878 54.3748 14.2068 46.2333 30.686 46.2333C48.8654 46.2333 55.0778 56.5655 55.0778 63.3828C55.0778 67.6824 53.2141 69.775 49.454 69.7587C45.4813 69.7587 38.6967 69.7096 33.4162 69.6769C31.1274 69.6769 29.1329 69.6606 27.7596 69.6442C24.6044 69.6442 23.4273 67.8459 23.4273 66.2928C23.4273 64.331 24.8986 62.876 27.6288 62.7779C29.0021 62.7289 30.4571 62.6798 31.8958 62.6144C35.5415 62.4836 39.1381 62.3529 41.3451 62.2221C44.6966 62.0259 45.187 59.6227 43.4704 57.857C40.7239 55.0288 35.4107 53.6065 28.6097 54.146C22.1194 54.6691 13.8798 58.2494 13.8798 67.0775L13.8962 67.0939ZM242.153 78.9955C225.543 82.5432 206.546 78.7503 206.546 67.0939C206.546 58.2821 214.786 54.6855 221.276 54.1623C228.077 53.6228 233.406 55.0451 236.137 57.8734C237.853 59.639 237.379 62.0422 234.011 62.2384C231.804 62.3692 228.191 62.5 224.562 62.6308C223.123 62.6798 221.668 62.7289 220.295 62.7943C217.548 62.8924 216.093 64.3474 216.093 66.3092C216.093 67.8623 217.27 69.6442 220.426 69.6606C221.734 69.6606 223.597 69.6606 225.755 69.6933H225.968H226.05H226.066C231.346 69.726 238.131 69.7587 242.104 69.775C245.864 69.775 247.728 67.6988 247.728 63.3992C247.728 56.5982 241.515 46.2497 223.336 46.2497C206.857 46.2497 194.939 54.4075 194.939 67.7151C194.939 86.6139 222.927 92.3685 243.444 85.3551C245.39 84.7011 247.155 83.3115 246.583 81.1535C246.093 79.2408 244.523 78.5051 242.153 79.0119V78.9955ZM105.84 47.1979C103.387 47.1979 102.129 49.176 101.802 51.5956C101.622 52.9362 101.164 55.977 100.723 58.9524C100.298 61.8624 99.8725 64.7234 99.709 65.8841C99.709 65.9659 99.6927 66.0639 99.6763 66.1457C99.5128 67.4699 99.333 68.8105 98.0415 69.3663C96.6682 69.9712 94.9843 69.0394 93.562 67.8296C92.1233 66.6198 70.9685 48.7183 70.9685 48.7183C69.7587 47.672 68.2219 47.1652 66.7669 47.1652C63.579 47.1652 60.5055 49.127 60.5055 53.9498V83.7856C60.5055 86.1071 62.1567 87.5948 64.1348 87.5948C66.3092 87.5948 67.7151 86.1562 68.0258 84.0636C68.0258 84.0636 70.3472 69.8404 70.6415 68.2546C70.9685 66.4073 71.2627 64.9686 73.0611 64.4128C74.6796 63.906 76.2163 64.8542 78.5051 66.8323C80.7612 68.7778 99.8071 85.8782 99.8071 85.8782C101.262 87.1044 102.325 87.5948 104.385 87.5948C106.248 87.5948 109.665 86.8428 109.665 81.1535V51.4321C109.665 48.6692 107.949 47.1652 105.856 47.1652L105.84 47.1979ZM179.555 80.7775C179.636 81.5459 179.702 82.1835 179.735 82.6739C180.094 86.5322 182.105 87.6439 184.116 87.6439C186.127 87.6439 188.105 86.6466 188.465 82.723C188.497 82.4124 188.53 82.02 188.563 81.5786C188.939 77.4588 189.789 68.2546 190.214 59.1486C190.247 58.6254 189.871 58.3965 189.445 58.4783L178.639 60.2112C178.329 60.2766 178.1 60.5382 178.1 60.8488C178.41 69.4644 179.146 76.8539 179.538 80.7939L179.555 80.7775ZM177.805 52.4457C177.756 50.0752 179.195 46.217 184.149 46.217C189.102 46.217 190.606 50.1896 190.541 52.4784V52.5765C190.541 52.8544 190.508 53.3285 190.492 53.8026C190.475 54.0806 190.296 54.3421 189.936 54.4239L178.656 56.2386C178.23 56.2876 177.92 55.9606 177.92 55.6173C177.854 54.0969 177.805 52.8871 177.789 52.4457H177.805ZM167.571 62.6471C165.74 62.6471 162.029 62.6635 157.877 62.6962C153.495 62.7289 148.591 62.7452 144.782 62.7616C141.185 62.7616 140.269 64.6907 140.269 66.2765C140.269 67.6661 141.234 69.4481 144.602 69.6279C147.806 69.7914 151.566 69.9712 154.656 70.1184C156.503 70.2164 158.122 70.2818 159.234 70.3472C163.288 70.5598 163.337 72.6197 161.964 74.3853C159.217 77.9329 152.531 80.2707 145.583 80.2707C136.509 80.2707 126.537 75.1373 126.537 67.0285C126.537 59.4101 135.087 51.0071 160.46 54.5547C162.683 54.8653 164.89 54.4729 165.43 52.413C166.018 50.2387 164.58 48.8327 161.702 48.0807C155.948 46.5766 150.716 46.217 145.697 46.217C128.613 46.217 114.929 54.3258 114.929 67.4045C114.929 81.3824 128.58 88.216 145.583 88.216C164.58 88.216 173.833 77.9492 173.833 68.974C173.833 64.3964 171.495 62.6635 167.555 62.6635L167.571 62.6471Z" fill="#00AAFF"/>
</g>
<defs>
<clipPath id="clip0_251_398">
<rect width="250" height="88.2161" fill="white"/>
</clipPath>
</defs>
</svg>
